<svg width="20" height="16" viewBox="0 0 20 16" fill="none" xmlns="http://www.w3.org/2000/svg">
<path d="M19.0058 7.00409H3.4158L8.7158 1.71409C8.9041 1.52579 9.00989 1.27039 9.00989 1.00409C9.00989 0.73779 8.9041 0.482395 8.7158 0.294092C8.52749 0.105788 8.2721 0 8.0058 0C7.7395 0 7.4841 0.105788 7.2958 0.294092L0.295798 7.29409C0.20207 7.38705 0.127676 7.49765 0.0769069 7.61951C0.0261382 7.74137 0 7.87208 0 8.00409C0 8.1361 0.0261382 8.26681 0.0769069 8.38867C0.127676 8.51053 0.20207 8.62113 0.295798 8.71409L7.2958 15.7141C7.38876 15.8078 7.49936 15.8822 7.62122 15.933C7.74308 15.9838 7.87379 16.0099 8.0058 16.0099C8.13781 16.0099 8.26852 15.9838 8.39038 15.933C8.51223 15.8822 8.62284 15.8078 8.7158 15.7141C8.80953 15.6211 8.88392 15.5105 8.93469 15.3887C8.98546 15.2668 9.0116 15.1361 9.0116 15.0041C9.0116 14.8721 8.98546 14.7414 8.93469 14.6195C8.88392 14.4977 8.80953 14.3871 8.7158 14.2941L3.4158 9.00409H19.0058C19.271 9.00409 19.5254 8.89873 19.7129 8.7112C19.9004 8.52366 20.0058 8.26931 20.0058 8.00409C20.0058 7.73887 19.9004 7.48452 19.7129 7.29698C19.5254 7.10945 19.271 7.00409 19.0058 7.00409Z" fill="#464255"/>
</svg>
