<svg width="17" height="17" viewBox="0 0 17 17" fill="none" xmlns="http://www.w3.org/2000/svg">
<path d="M2.72542 15.9246L8.50012 10.1499L14.2748 15.9246C14.4936 16.1434 14.7904 16.2663 15.0998 16.2663C15.4092 16.2663 15.7059 16.1434 15.9247 15.9246C16.1435 15.7058 16.2665 15.4091 16.2664 15.0997C16.2665 14.7902 16.1435 14.4935 15.9247 14.2747L10.15 8.5L15.9247 2.7253C16.1435 2.5065 16.2665 2.20976 16.2664 1.90034C16.2665 1.59092 16.1435 1.29417 15.9247 1.07538C15.7059 0.856586 15.4092 0.733669 15.0998 0.73367C14.7904 0.73367 14.4936 0.856587 14.2748 1.07538L8.50012 6.85008L2.72542 1.07538C2.50662 0.856587 2.20988 0.73367 1.90046 0.733671C1.59104 0.733671 1.29429 0.856587 1.0755 1.07538C0.856707 1.29417 0.733791 1.59092 0.733791 1.90034C0.733791 2.20976 0.856707 2.5065 1.0755 2.72529L6.8502 8.5L1.0755 14.2747C0.856707 14.4935 0.733791 14.7902 0.733791 15.0997C0.733791 15.4091 0.856707 15.7058 1.0755 15.9246C1.29429 16.1434 1.59104 16.2663 1.90046 16.2663C2.20988 16.2663 2.50662 16.1434 2.72542 15.9246Z" fill="#464255"/>
</svg>
