<svg width="21" height="12" viewBox="0 0 21 12" fill="none" xmlns="http://www.w3.org/2000/svg">
<path d="M10.8215 11.4277C10.5841 11.4257 10.3567 11.3314 10.1874 11.1649L1.21856 2.19606C1.05519 2.02691 0.964787 1.80035 0.966831 1.56519C0.968874 1.33003 1.0632 1.10508 1.22949 0.938788C1.39578 0.772497 1.62073 0.678172 1.85589 0.676129C2.09105 0.674085 2.31761 0.764487 2.48676 0.927862L10.8215 9.26265L19.1563 0.927862C19.2391 0.8422 19.338 0.773873 19.4475 0.726868C19.5569 0.679863 19.6746 0.655121 19.7937 0.654087C19.9127 0.653052 20.0308 0.675744 20.1411 0.720841C20.2513 0.765937 20.3514 0.832534 20.4356 0.916745C20.5199 1.00096 20.5865 1.1011 20.6316 1.21132C20.6766 1.32154 20.6993 1.43965 20.6983 1.55873C20.6973 1.67782 20.6725 1.79551 20.6255 1.90494C20.5785 2.01436 20.5102 2.11333 20.4245 2.19606L11.4556 11.1649C11.2863 11.3314 11.059 11.4257 10.8215 11.4277Z" fill="#464255"/>
</svg>
